<svg height="24" viewBox="0 0 24 24" fill="none" xmlns="http://www.w3.org/2000/svg">
<path fill-rule="evenodd" clip-rule="evenodd" d="M5.41468 3.3501C4.88485 3.35009 4.43361 3.35007 4.06321 3.38034C3.67405 3.41213 3.29545 3.48177 2.93352 3.66618C2.38785 3.94421 1.94421 4.38786 1.66618 4.93353C1.48177 5.29546 1.41213 5.67406 1.38034 6.06322C1.35007 6.43363 1.35009 6.88478 1.3501 7.41462V15.3355C1.35009 15.8653 1.35007 16.3166 1.38034 16.687C1.41213 17.0761 1.48177 17.4547 1.66618 17.8167C1.94421 18.3623 2.38785 18.806 2.93352 19.084C3.29545 19.2684 3.67405 19.3381 4.06321 19.3699C4.43363 19.4001 4.88481 19.4001 5.41468 19.4001H7.51185C8.28846 19.4001 8.53008 19.4059 8.74767 19.4581C8.96194 19.5096 9.16679 19.5944 9.35468 19.7096C9.54548 19.8265 9.72041 19.9932 10.2696 20.5424L11.3637 21.6365C11.5358 21.8086 11.7659 21.9001 12.0001 21.9001C12.2316 21.9002 12.4697 21.8034 12.6365 21.6365L13.7306 20.5424C14.2797 19.9932 14.4547 19.8265 14.6455 19.7096C14.8334 19.5944 15.0382 19.5096 15.2525 19.4581C15.4701 19.4059 15.7117 19.4001 16.4883 19.4001H18.5855C19.1153 19.4001 19.5665 19.4001 19.937 19.3699C20.3261 19.3381 20.7047 19.2684 21.0666 19.084C21.6123 18.806 22.056 18.3623 22.334 17.8167C22.5184 17.4547 22.588 17.0761 22.6198 16.687C22.6501 16.3166 22.6501 15.8654 22.6501 15.3356V7.4147C22.6501 6.88485 22.6501 6.43364 22.6198 6.06322C22.588 5.67406 22.5184 5.29546 22.334 4.93353C22.056 4.38786 21.6123 3.94421 21.0666 3.66618C20.7047 3.48177 20.3261 3.41213 19.937 3.38034C19.5665 3.35007 19.1154 3.35009 18.5856 3.3501H16.7624C15.9544 3.35009 15.2935 3.35008 14.7564 3.39396C14.2005 3.43938 13.6984 3.53626 13.2295 3.77518C12.7545 4.01723 12.3369 4.35261 12.0001 4.75814C11.6632 4.35261 11.2457 4.01723 10.7706 3.77518C10.3017 3.53626 9.79966 3.43938 9.24375 3.39396C8.7067 3.35008 8.04589 3.35009 7.23789 3.3501H5.41468ZM3.91018 5.2039C4.0417 5.16117 4.23554 5.15007 5.0501 5.15007H7.80009C8.9869 5.15007 9.36686 5.16117 9.64901 5.25285C10.2883 5.46057 10.7896 5.96181 10.9973 6.60113C11.089 6.88328 11.1001 7.26325 11.1001 8.45007V18.8283C10.9027 18.6343 10.7342 18.4789 10.5498 18.3449C10.0519 17.9831 9.47542 17.7444 8.86753 17.6481C8.56307 17.5999 8.2515 17.5999 7.82424 17.6001L5.0501 17.6001C4.23554 17.6001 4.0417 17.589 3.91018 17.5462C3.5753 17.4374 3.31275 17.1749 3.20394 16.84C3.16121 16.7085 3.1501 16.5146 3.1501 15.7001V7.05007C3.1501 6.2355 3.16121 6.04167 3.20394 5.91015C3.31275 5.57527 3.5753 5.31271 3.91018 5.2039ZM20.09 5.2039C19.9585 5.16117 19.7646 5.15007 18.9501 5.15007H16.2001C15.0133 5.15007 14.6333 5.16117 14.3511 5.25285C13.7118 5.46057 13.2106 5.96181 13.0029 6.60113C12.9112 6.88328 12.9001 7.26325 12.9001 8.45007V18.8283C13.0975 18.6343 13.266 18.4789 13.4504 18.3449C13.9483 17.9831 14.5247 17.7444 15.1326 17.6481C15.4371 17.5999 15.7487 17.5999 16.1759 17.6001L18.9501 17.6001C19.7646 17.6001 19.9585 17.589 20.09 17.5462C20.4249 17.4374 20.6874 17.1749 20.7962 16.84C20.839 16.7085 20.8501 16.5146 20.8501 15.7001V7.05007C20.8501 6.2355 20.839 6.04167 20.7962 5.91015C20.6874 5.57527 20.4249 5.31271 20.09 5.2039Z" fill="currentColor" fill-opacity="0.88"/>
</svg>