<svg height="24" viewBox="0 0 24 24" fill="none" xmlns="http://www.w3.org/2000/svg">
<path fill-rule="evenodd" clip-rule="evenodd" d="M12 2.1001C7.63693 2.1001 4.09998 5.63705 4.09998 10.0001C4.09998 12.2748 5.06136 14.325 6.59998 15.7664V19.5753C6.59995 19.9534 6.59992 20.2962 6.6253 20.5745C6.65158 20.8628 6.71327 21.2122 6.92831 21.5288C7.21525 21.9512 7.66013 22.2403 8.16266 22.331C8.53927 22.3989 8.88364 22.3134 9.15778 22.2203C9.42238 22.1305 9.73564 21.9912 10.0811 21.8376L11.0659 21.4C11.5866 21.1685 11.7061 21.1226 11.8168 21.1039C11.9381 21.0834 12.0619 21.0834 12.1831 21.1039C12.2938 21.1226 12.4134 21.1685 12.9341 21.4L13.9188 21.8376C14.2643 21.9912 14.5776 22.1304 14.8422 22.2203C15.1163 22.3134 15.4607 22.3989 15.8373 22.331C16.3398 22.2403 16.7847 21.9512 17.0716 21.5288C17.2867 21.2122 17.3484 20.8628 17.3747 20.5745C17.4 20.2962 17.4 19.9534 17.4 19.5753L17.4 15.7664C18.9386 14.325 19.9 12.2748 19.9 10.0001C19.9 5.63705 16.363 2.1001 12 2.1001ZM5.89998 10.0001C5.89998 6.63116 8.63104 3.9001 12 3.9001C15.3689 3.9001 18.1 6.63116 18.1 10.0001C18.1 13.369 15.3689 16.1001 12 16.1001C8.63104 16.1001 5.89998 13.369 5.89998 10.0001ZM15.6 17.034C14.5204 17.5877 13.2967 17.9001 12 17.9001C10.7033 17.9001 9.47956 17.5877 8.39996 17.034V20.461C8.39996 20.5333 8.47445 20.5817 8.54058 20.5523L10.8222 19.5383C11.572 19.205 12.4279 19.205 13.1778 19.5383L15.4593 20.5523C15.5255 20.5817 15.6 20.5333 15.6 20.461V17.034Z" fill="currentColor" fill-opacity="0.88"/>
</svg>