<svg height="24" viewBox="0 0 24 24" fill="none" xmlns="http://www.w3.org/2000/svg">
<path d="M4.00034 4.84961C3.50328 4.84961 3.10034 5.25255 3.10034 5.74961C3.10034 6.24667 3.50328 6.64961 4.00034 6.64961H20.0003C20.4973 6.64961 20.9003 6.24667 20.9003 5.74961C20.9003 5.25255 20.4973 4.84961 20.0003 4.84961H4.00034Z" fill="currentColor" fill-opacity="0.88"/>
<path d="M3.10035 11.9998C3.10035 11.5027 3.5033 11.0998 4.00035 11.0998H20.0003C20.4973 11.0998 20.9003 11.5027 20.9003 11.9998C20.9003 12.4969 20.4973 12.8998 20.0003 12.8998H4.00035C3.5033 12.8998 3.10035 12.4969 3.10035 11.9998Z" fill="currentColor" fill-opacity="0.88"/>
<path d="M3.10035 18.2495C3.10035 17.7525 3.50329 17.3495 4.00035 17.3495H20.0003C20.4973 17.3495 20.9003 17.7525 20.9003 18.2495C20.9003 18.7466 20.4973 19.1495 20.0003 19.1495H4.00035C3.50329 19.1495 3.10035 18.7466 3.10035 18.2495Z" fill="currentColor" fill-opacity="0.88"/>
</svg>