<svg height="24" viewBox="0 0 24 24" fill="none" xmlns="http://www.w3.org/2000/svg">
<path d="M12.0001 8.09961C12.4971 8.09961 12.9001 8.50255 12.9001 8.99961V12.9996C12.9001 13.4967 12.4971 13.8996 12.0001 13.8996C11.503 13.8996 11.1001 13.4967 11.1001 12.9996V8.99961C11.1001 8.50255 11.503 8.09961 12.0001 8.09961Z" fill="currentColor" fill-opacity="0.88"/>
<path d="M13 16.4996C13 17.0519 12.5522 17.4996 12 17.4996C11.4477 17.4996 11 17.0519 11 16.4996C11 15.9473 11.4477 15.4996 12 15.4996C12.5522 15.4996 13 15.9473 13 16.4996Z" fill="currentColor" fill-opacity="0.88"/>
<path fill-rule="evenodd" clip-rule="evenodd" d="M13.1794 3.10033C12.4286 2.76604 11.5712 2.76604 10.8203 3.10033C10.297 3.33333 9.91921 3.76043 9.59087 4.22516C9.26536 4.68589 8.90722 5.30622 8.47149 6.06097L3.36064 14.9132C2.92488 15.668 2.56672 16.2883 2.33047 16.8006C2.09218 17.3173 1.9112 17.858 1.97108 18.4277C2.05699 19.2451 2.48569 19.9877 3.15061 20.4708C3.61406 20.8075 4.17284 20.9211 4.73948 20.9731C5.30124 21.0246 6.01753 21.0246 6.88903 21.0246H17.1107C17.9822 21.0246 18.6985 21.0246 19.2603 20.9731C19.8269 20.9211 20.3857 20.8075 20.8491 20.4708C21.5141 19.9877 21.9428 19.2451 22.0287 18.4277C22.0885 17.858 21.9076 17.3173 21.6693 16.8006C21.433 16.2883 21.0749 15.668 20.6391 14.9133L15.5282 6.06096C15.0925 5.30622 14.7344 4.68589 14.4089 4.22516C14.0805 3.76043 13.7027 3.33333 13.1794 3.10033ZM11.0472 5.19963C11.4706 4.4663 12.5291 4.4663 12.9525 5.19963L20.0972 17.5746C20.5206 18.308 19.9913 19.2246 19.1446 19.2246H4.85517C4.0084 19.2246 3.47916 18.308 3.90255 17.5746L11.0472 5.19963Z" fill="currentColor" fill-opacity="0.88"/>
</svg>