<svg height="24" viewBox="0 0 24 24" fill="none" xmlns="http://www.w3.org/2000/svg">
<path fill-rule="evenodd" clip-rule="evenodd" d="M11.9997 2.1001C6.25591 2.1001 1.59967 6.75634 1.59967 12.5001C1.59967 12.6577 1.60318 12.8145 1.61014 12.9706C1.62509 13.3058 1.82535 13.605 2.12966 13.7465C2.43396 13.8881 2.79175 13.8485 3.05781 13.644C3.66493 13.1772 4.42365 12.9001 5.24965 12.9001C6.15778 12.9001 6.98543 13.2352 7.61912 13.7897C7.92127 14.0542 8.36202 14.0864 8.69948 13.8689C9.41143 13.4099 10.2248 13.0951 11.0996 12.9659V19.2505C11.0996 19.9961 10.4952 20.6005 9.74963 20.6005C9.00405 20.6005 8.39963 19.9961 8.39963 19.2505C8.39963 18.7534 7.99669 18.3505 7.49963 18.3505C7.00258 18.3505 6.59963 18.7534 6.59963 19.2505C6.59963 20.9902 8.00994 22.4005 9.74963 22.4005C11.4893 22.4005 12.8996 20.9902 12.8996 19.2505V12.9659C13.7745 13.0951 14.5879 13.4099 15.2998 13.8689C15.6373 14.0865 16.078 14.0542 16.3802 13.7897C17.0139 13.2352 17.8415 12.9001 18.7496 12.9001C19.5756 12.9001 20.3344 13.1772 20.9415 13.644C21.2076 13.8486 21.5654 13.8881 21.8697 13.7465C22.174 13.605 22.3743 13.3059 22.3892 12.9706C22.3962 12.8146 22.3997 12.6577 22.3997 12.5001C22.3997 6.75634 17.7434 2.1001 11.9997 2.1001ZM5.24965 11.1001C4.62628 11.1001 4.02701 11.206 3.46928 11.4007C4.00908 7.17025 7.62248 3.9001 11.9997 3.9001C16.3769 3.9001 19.9903 7.17026 20.5301 11.4008C19.9723 11.206 19.373 11.1001 18.7496 11.1001C17.6275 11.1001 16.584 11.4432 15.7201 12.0295C14.6109 11.4363 13.3435 11.1001 11.9996 11.1001C10.6558 11.1001 9.38842 11.4363 8.27917 12.0295C7.41534 11.4432 6.37181 11.1001 5.24965 11.1001Z" fill="currentColor" fill-opacity="0.88"/>
</svg>