<svg height="24" viewBox="0 0 24 24" fill="none" xmlns="http://www.w3.org/2000/svg">
<path d="M11.5692 7.45855C11.8399 7.32082 12.1601 7.32082 12.4308 7.45855C12.648 7.56907 12.7728 7.77414 12.8559 7.93288C12.9438 8.1005 13.0371 8.32489 13.1461 8.58703L13.5504 9.55901C13.5865 9.64593 13.6061 9.69244 13.6224 9.72583C13.6274 9.73589 13.6308 9.74211 13.6327 9.74551C13.6358 9.74833 13.6391 9.75076 13.6427 9.75276C13.6452 9.75329 13.6491 9.75403 13.6546 9.75493C13.6574 9.75541 13.6608 9.75592 13.6646 9.75647C13.7014 9.76172 13.7517 9.76595 13.8456 9.77348L14.8949 9.8576C15.1779 9.88028 15.4201 9.89969 15.6067 9.93142C15.7834 9.96146 16.0169 10.0167 16.1892 10.1892C16.4038 10.404 16.5027 10.7086 16.4554 11.0086C16.4174 11.2493 16.2609 11.4313 16.1357 11.5595C16.0034 11.6948 15.8188 11.8529 15.6032 12.0376L14.8037 12.7224C14.7322 12.7837 14.694 12.8167 14.6673 12.8425C14.6627 12.847 14.6592 12.8506 14.6565 12.8534C14.6545 12.8555 14.6518 12.8584 14.6518 12.8584C14.6501 12.8622 14.6488 12.8661 14.648 12.8701C14.6484 12.874 14.6493 12.8811 14.6512 12.8921C14.6576 12.9288 14.6691 12.9779 14.691 13.0695L14.9352 14.0934C15.0011 14.3695 15.0575 14.606 15.085 14.7932C15.111 14.9705 15.1306 15.2097 15.0198 15.4268C14.8818 15.6973 14.6227 15.8856 14.3228 15.9333C14.0821 15.9715 13.8607 15.8789 13.7001 15.7994C13.5305 15.7154 13.3231 15.5887 13.0808 15.4407L12.1824 14.892C12.1021 14.8429 12.0589 14.8168 12.0261 14.7994C12.0162 14.7942 12.0098 14.7911 12.0062 14.7895C12.0021 14.789 11.9979 14.789 11.9938 14.7895C11.9903 14.7911 11.9839 14.7942 11.9739 14.7994C11.9411 14.8168 11.8979 14.8429 11.8176 14.892L10.9192 15.4407C10.6769 15.5887 10.4695 15.7154 10.3 15.7994C10.1394 15.8789 9.91792 15.9715 9.67721 15.9333C9.37727 15.8856 9.11821 15.6973 8.98017 15.4268C8.86939 15.2097 8.88902 14.9705 8.91504 14.7932C8.94251 14.606 8.99891 14.3696 9.06479 14.0934L9.30904 13.0695C9.33089 12.9779 9.3424 12.9288 9.34878 12.8921C9.3507 12.8811 9.35161 12.874 9.35202 12.8701C9.35124 12.8661 9.34996 12.8622 9.34821 12.8584C9.34558 12.8555 9.34072 12.8503 9.33267 12.8425C9.30598 12.8167 9.26779 12.7837 9.19629 12.7224L8.39681 12.0376C8.18121 11.8529 7.99661 11.6948 7.86435 11.5595C7.73908 11.4313 7.58259 11.2493 7.54461 11.0086C7.49727 10.7086 7.59622 10.404 7.81085 10.1892C7.98309 10.0167 8.21666 9.96146 8.39334 9.93142C8.57989 9.89969 8.82213 9.88028 9.10512 9.8576L10.1545 9.77348C10.2483 9.76595 10.2986 9.76172 10.3354 9.75647C10.3465 9.75488 10.3535 9.75357 10.3573 9.75276C10.3609 9.75076 10.3643 9.74833 10.3673 9.74551C10.3692 9.74211 10.3726 9.73589 10.3776 9.72583C10.3939 9.69244 10.4135 9.64593 10.4497 9.55901L10.8539 8.58703C10.9629 8.32489 11.0563 8.1005 11.1441 7.93288C11.2273 7.77414 11.352 7.56907 11.5692 7.45855Z" fill="currentColor" fill-opacity="0.88"/>
<path fill-rule="evenodd" clip-rule="evenodd" d="M10.0257 2.42717C11.1114 1.32502 12.8893 1.3251 13.975 2.42718L15.0879 3.55697C15.2724 3.7442 15.5248 3.84872 15.7876 3.84675L17.3734 3.83488C18.9205 3.8233 20.1775 5.08046 20.166 6.62745L20.1541 8.21332C20.1522 8.47619 20.2568 8.72858 20.4439 8.91296L21.5737 10.026C22.6758 11.1117 22.6758 12.8895 21.5737 13.9753L20.4439 15.0882C20.2567 15.2726 20.1522 15.5251 20.1541 15.7879L20.166 17.3738C20.1775 18.9207 18.9204 20.1778 17.3734 20.1663L15.7876 20.1544C15.5247 20.1525 15.2723 20.257 15.0879 20.4442L13.975 21.574C12.8892 22.6761 11.1115 22.6761 10.0257 21.574L8.91266 20.4442C8.72828 20.257 8.47584 20.1525 8.21298 20.1544L6.62714 20.1663C5.08016 20.1778 3.82305 18.9208 3.83464 17.3737L3.84651 15.7879C3.84848 15.5251 3.7439 15.2726 3.55666 15.0881L2.42694 13.9752C1.32482 12.8895 1.32483 11.1117 2.42694 10.026L3.55671 8.91294C3.74393 8.7285 3.84848 8.47611 3.84651 8.21331L3.83464 6.62744C3.82305 5.08038 5.08013 3.8233 6.62719 3.83488L8.21306 3.84675C8.47585 3.84872 8.72826 3.74416 8.9127 3.55694L10.0257 2.42717ZM12.6927 3.6904C12.312 3.30395 11.6886 3.30402 11.308 3.69037L10.1949 4.8202C9.66893 5.35415 8.94909 5.65231 8.19958 5.6467L6.61371 5.63483C6.07128 5.63077 5.63052 6.07153 5.63458 6.61397L5.64645 8.19984C5.65207 8.94935 5.35388 9.66921 4.81993 10.1952L3.69017 11.3083C3.30374 11.6889 3.30375 12.3123 3.69017 12.6929L4.81998 13.8059C5.35389 14.332 5.65207 15.0518 5.64645 15.8013L5.63458 17.3872C5.63052 17.9295 6.07128 18.3703 6.61376 18.3663L8.19966 18.3544C8.94907 18.3489 9.66894 18.647 10.195 19.181L11.308 20.3108C11.6887 20.6972 12.312 20.6972 12.6927 20.3108L13.8056 19.181C14.3317 18.647 15.0516 18.3489 15.8011 18.3544L17.3869 18.3663C17.9293 18.3703 18.37 17.9295 18.366 17.3872L18.3541 15.8013C18.3486 15.0518 18.6467 14.332 19.1807 13.8059L20.3105 12.693C20.6969 12.3123 20.6969 11.6889 20.3105 11.3082L19.1807 10.1952C18.6467 9.66916 18.3486 8.94923 18.3541 8.19983L18.366 6.61396C18.37 6.07148 17.9293 5.63077 17.3869 5.63483L15.8011 5.6467C15.0515 5.65231 14.3316 5.35408 13.8056 4.82017L12.6927 3.6904Z" fill="currentColor" fill-opacity="0.88"/>
</svg>